<svg width="260" height="75" viewBox="0 0 260 75" fill="none" xmlns="http://www.w3.org/2000/svg">
<path d="M93.3811 4.69038C94.7379 3.22258 96.1157 1.78414 97.5041 0.345703C97.5567 7.81189 97.4094 15.2781 97.5882 22.7345C114.522 22.7932 131.467 22.6366 148.4 22.8127C148.295 22.2354 148.095 21.0808 148.001 20.4936C148.947 19.564 149.894 18.6246 150.841 17.6853C151.388 19.3683 151.956 21.0416 152.513 22.7247C160.107 22.754 167.701 22.7345 175.295 22.7443C174.832 21.8734 174.38 21.0025 173.928 20.1316C174.885 19.1922 175.842 18.2626 176.82 17.3526C178.293 20.3958 177.598 23.6054 176.284 26.5507C167.669 26.404 159.045 26.766 150.441 26.3452C137.588 26.766 124.714 26.4235 111.851 26.5312C106.129 26.4627 100.397 26.7758 94.6958 26.267C88.5007 26.7269 82.2636 26.5605 76.058 26.4822C73.8913 26.5997 72.2189 24.8774 71.4932 23.1552C70.799 20.5328 72.3346 18.1256 73.1655 15.7086C73.3549 18.0473 72.3451 21.5896 75.6162 22.3724C81.4747 23.2042 87.4805 22.529 93.4021 22.7443C93.3916 16.7263 93.4126 10.7083 93.3811 4.69038Z" fill="white"/>
<path d="M191.986 2.87024C198.633 2.87024 205.281 2.84089 211.928 2.88982C211.686 18.8105 211.76 34.7312 211.928 50.6519C221.142 50.6519 230.345 50.6616 239.559 50.6519C239.538 49.4189 239.516 48.1957 239.495 46.9726C246.101 46.9334 252.717 46.9824 259.322 46.9334C259.311 53.0884 259.322 59.2433 259.311 65.3885C236.887 65.3787 214.452 65.3787 192.017 65.3983C191.986 44.5556 192.049 23.7129 191.986 2.87024Z" fill="white"/>
<path d="M215.671 2.85077C230.218 2.88012 244.775 2.85077 259.331 2.87034C259.31 9.01551 259.321 15.1705 259.321 21.3254C251.369 21.3156 243.428 21.3156 235.487 21.3156C235.508 22.4899 235.54 23.6543 235.571 24.8188C243.491 24.7307 251.401 24.809 259.321 24.7698C259.321 30.9444 259.31 37.1091 259.331 43.2836C251.39 43.2836 243.449 43.2738 235.519 43.2836C235.529 44.5264 235.55 45.7593 235.561 47.002C228.935 47.0118 222.298 46.9825 215.671 47.0216C215.692 32.2947 215.692 17.5776 215.671 2.85077Z" fill="white"/>
<path d="M82.0404 14.5147C78.5484 11.6672 82.2823 8.19337 85.7427 7.82153C85.8058 8.27166 85.9425 9.16212 86.0162 9.61224C84.4385 10.3755 82.9344 11.2366 81.4829 12.1956C83.5024 12.4011 85.5113 12.5968 87.5308 12.7925C85.322 14.2798 82.9239 15.4932 80.5679 16.7457C81.0622 16.002 81.546 15.2584 82.0404 14.5147Z" fill="white"/>
<path d="M147.169 12.4402C148.042 11.6671 148.926 10.8843 149.799 10.1113C150.746 11.0996 151.682 12.0781 152.628 13.0664C151.86 13.7318 151.093 14.3874 150.335 15.0528C149.273 14.182 148.221 13.3111 147.169 12.4402Z" fill="white"/>
<path d="M172.423 30.5821C173.254 29.858 174.096 29.1437 174.937 28.4196C175.936 29.3002 176.936 30.1907 177.935 31.0714C177.083 31.8248 176.22 32.5783 175.368 33.322C174.38 32.412 173.402 31.4921 172.423 30.5821Z" fill="white"/>
<path d="M115.015 37.7353C116.12 36.8057 117.224 35.8858 118.328 34.9562C119.853 36.1598 121.368 37.3634 122.872 38.5768C121.726 39.4868 120.579 40.4066 119.433 41.3167C117.96 40.1229 116.488 38.9291 115.015 37.7353Z" fill="white"/>
<path d="M43.0838 37.7842C44.0936 38.8116 45.0928 39.8587 46.0815 40.8959C47.1543 39.8782 48.2166 38.8606 49.2894 37.8429C50.4254 38.8899 51.5613 39.9272 52.7183 40.9644C51.6875 42.1778 50.6568 43.4009 49.6365 44.6143C48.5322 43.5966 47.4383 42.5692 46.3549 41.5319C45.2926 42.53 44.2408 43.5379 43.189 44.5556C42.0636 43.4499 40.9382 42.3441 39.8022 41.2482C40.8961 40.0935 41.99 38.9388 43.0838 37.7842Z" fill="white"/>
<path d="M162.104 38.2245C162.367 38.6747 162.893 39.5651 163.156 40.0153C164.976 40.7883 166.796 41.5711 168.615 42.3442C167.669 43.8805 166.743 45.4265 165.733 46.9335C165.859 50.0452 166.312 53.1569 166.27 56.2686C165.954 59.1259 164.545 61.7484 163.503 64.4198C155.762 64.4002 148.021 64.4296 140.28 64.4002C139.933 63.725 139.596 63.0499 139.259 62.3747C138.902 62.8346 138.187 63.7642 137.829 64.2339C132.938 64.6938 128.005 64.2632 123.093 64.4491C122.704 63.9012 121.915 62.815 121.526 62.267C121.095 62.815 120.233 63.9207 119.801 64.4687C115.657 64.4002 111.513 64.4002 107.369 64.4394C107.064 63.9599 106.475 63.0107 106.181 62.5312C104.392 65.1635 100.953 64.3024 98.1658 64.4394C87.7531 64.4002 77.3403 64.3904 66.9275 64.4394C65.3288 68.1676 63.5933 72.6297 59.1442 74.0975C55.7574 73.4908 54.0115 70.4182 51.9604 68.1774C57.1142 69.5375 62.1524 66.7878 64.2244 62.3551C62.9517 60.4959 61.5002 58.715 60.5957 56.6698C61.658 55.2608 62.9728 54.0474 64.2244 52.7851C65.192 54.5171 66.1387 56.2589 67.0537 58.0202C79.4334 57.9615 91.8235 58.1572 104.203 57.9126C103.383 56.435 102.573 54.9672 101.763 53.4994C102.941 52.1784 104.119 50.8672 105.318 49.5657C106.738 52.4132 108.189 55.251 109.672 58.0789C113.028 58.0104 116.372 58.0202 119.728 57.9909C118.991 56.4839 118.255 54.9868 117.519 53.4798C118.602 52.1784 119.675 50.8672 120.748 49.5559C122.368 52.3447 123.893 55.1825 125.323 58.0593C129.183 58.0104 133.043 58.0496 136.903 57.9713C136.104 56.6992 135.273 55.4565 134.442 54.2039C135.768 52.5307 137.061 50.8378 138.376 49.1547C140.259 51.8065 141.048 54.8791 140.858 58.0398C147.832 58.0202 154.795 57.9713 161.757 58.0887C161.379 53.7049 160.769 49.3406 160.664 44.9373C160.243 44.5459 159.401 43.7532 158.981 43.3618C159.98 41.6298 161.053 39.937 162.104 38.2245Z" fill="white"/>
<path d="M171.044 44.1642C172.79 42.217 174.505 40.2403 176.272 38.3126C176.713 40.7883 177.408 43.3031 176.882 45.8082C176.03 50.603 177.628 55.5935 175.988 60.2904C175.22 62.6193 173.421 64.4492 171.654 66.1714C172.706 58.8422 170.95 51.513 171.044 44.1642Z" fill="white"/>
<path d="M113.384 43.8902C114.541 42.941 115.688 41.9918 116.845 41.0524C117.444 41.5221 118.654 42.4713 119.253 42.9508C119.8 42.4517 120.884 41.4634 121.42 40.9644C122.871 42.2071 124.312 43.44 125.764 44.6828C124.649 45.6319 123.545 46.5909 122.43 47.5401C121.704 46.8845 120.978 46.2191 120.242 45.5537C119.685 46.0331 118.549 46.9823 117.991 47.4618C116.445 46.2778 114.92 45.0742 113.384 43.8902Z" fill="white"/>
<path d="M40.8744 49.4678C42.0209 46.9432 44.7976 44.6143 47.953 45.3482C52.6756 46.4735 54.8002 51.1998 55.4207 55.2803C56.0308 58.5095 54.1691 61.4646 53.0752 64.41C37.6138 64.3904 22.1419 64.4589 6.67001 64.3904C3.07286 64.6644 0.632699 61.4059 0.201463 58.4312C-0.0720038 54.4192 1.67398 50.5051 4.34554 47.4129C3.94586 49.7614 2.85199 52.012 2.93613 54.4192C3.10442 56.5817 5.50251 58.0789 7.73232 57.9615C18.5027 58.1474 29.2941 57.9125 40.0645 58.0691C39.9173 55.202 39.4229 52.1392 40.8744 49.4678ZM44.5872 56.3665C45.7758 58.0006 48.1318 57.7756 49.9619 58.1963C50.3932 57.5016 50.8349 56.8166 51.2767 56.1316C50.6351 54.1061 50.309 51.8359 48.6261 50.2898C45.1342 48.5187 42.2417 53.9691 44.5872 56.3665Z" fill="white"/>
</svg>
